<?xml version="1.0" encoding="utf-8"?>
<!-- Generator: Adobe Illustrator 27.4.1, SVG Export Plug-In . SVG Version: 6.00 Build 0)  -->
<svg version="1.1" id="Calque_1" xmlns="http://www.w3.org/2000/svg" xmlns:xlink="http://www.w3.org/1999/xlink" x="0px" y="0px"
	 viewBox="0 0 500 500" style="enable-background:new 0 0 500 500;" xml:space="preserve">
<style type="text/css">
	.st0{fill:none;}
	.st1{fill-rule:evenodd;clip-rule:evenodd;fill:#FAA919;}
	.st2{fill-rule:evenodd;clip-rule:evenodd;fill:#FFE100;}
	.st3{fill-rule:evenodd;clip-rule:evenodd;fill:#1DBEE3;}
	.st4{fill-rule:evenodd;clip-rule:evenodd;fill:#FFFFFF;}
	.st5{clip-path:url(#SVGID_00000044858499606741484860000005394466920508309438_);}
	.st6{fill-rule:evenodd;clip-rule:evenodd;fill:#153C66;}
	.st7{clip-path:url(#SVGID_00000073695949476288653070000015270187862087295672_);}
	.st8{clip-path:url(#SVGID_00000112591110547420454340000002142074527177045156_);}
	.st9{clip-path:url(#SVGID_00000125581132334473790570000015152308167922384807_);}
	.st10{fill:#153C66;}
	.st11{fill:#E4AE30;}
</style>
<rect x="-50.4" y="-52.4" class="st0" width="600" height="600"/>
<rect x="-49.2" y="-50" class="st0" width="600" height="600"/>
<path class="st1" d="M250.9,167.5c-8.2,0-16.1,1.2-23.5,3.6c-2.8,0.9,25,2,22.4,3.2c-1.9,0.8-34.1,1.5-35.9,2.5
	c-8.7,4.7-16.4,10.9-22.7,18.4c-1,1.3,57.1,4.8,56.1,6.1c-1.7,2.3-62.5,2.5-64,5c-0.9,1.6-1.8,3.2-2.6,4.8
	c-0.6,1.1,18.3,2.5,17.8,3.6c-0.5,1.3-20.5,2.3-21,3.7c-3.2,8.6-5,18-5,27.7c0,4.2,0.3,8.3,1,12.4l31.3-35.1c2.4-2.6,6.3-2.6,8.7,0
	l7.4,8.3l21.8-24.4c2.4-2.6,6.3-2.6,8.7,0l7.9,8.9l2.3-2.6c2.4-2.6,6.3-2.6,8.7,0l12.5,14l3.7-4.1c2.3-2.6,6.3-2.6,8.7,0L328,260
	c1-6.5,1.9-20.9-1-32.5c-0.4-1.8-0.6-2.6-1.2-4.3c-0.3-1.1-18.4-2.1-18.8-3.2c-0.3-0.9,16.8-2.7,16.4-3.7
	c-4.2-10.3-10.6-19.6-18.6-27.2c-2.1-2-28.5-4.1-30.9-5.9c-2.1-1.6,19.8-2.9,17.6-4.3C279.8,171.7,265.8,167.5,250.9,167.5z"/>
<path class="st2" d="M175.1,253.7c-0.2-2.5-0.4-5-0.4-7.6c0-8.9,1.6-17.7,4.6-26.1c4.3-1,26.8-1.2,26.9-4.9
	c0.1-3.3-12.9-5.3-15.4-5.7c5.3-1.3,30.8-1.7,50.5-3.4l-20.4,22.7l-5.9-6.7c-3.1-3.5-8.4-3.5-11.6,0L175.1,253.7z"/>
<path class="st2" d="M296.8,222.2c9,1.3,27.2,2.3,27.6,4.1c1.5,7,2.3,18.9,1.9,28.9L296.8,222.2z"/>
<path class="st2" d="M286,178.3c-3.4,0.5-32.4,1.8-32.5,5.5c-0.1,5.4,45.1,4.5,50,7c6.9,6.7,12.6,14.5,16.6,23.2
	c0.6,1.4-20.6,4-26.6,5.8c-2.8-1-6.1-0.2-8.3,2.2l-2.3,2.5l-11-12.4c-3.2-3.6-8.5-3.6-11.6,0l-0.9,1l-6.5-7.2
	c-0.4-0.4-0.8-0.8-1.2-1.1c8-1.1,13.5-2.6,13.6-4.8c0.2-4.2-62.3-5.2-69.9-6.2c6.4-6.8,11.3-11,19.5-15c11.2-0.6,38.5-3,43.8-3.8
	c4.2-0.7-10.1-3.5-16.4-4.7c2.8-0.3,5.6-0.5,8.5-0.5C263.2,169.7,275.2,172.7,286,178.3z"/>
<path class="st3" d="M174.9,259.8l31.3-35.1c1.6-1.8,4.2-1.8,5.8,0l8.8,9.9l23.3-26.1c1.6-1.8,4.2-1.8,5.8,0l9.4,10.5l3.8-4.3
	c1.6-1.8,4.2-1.8,5.8,0l14,15.6l5.1-5.7c1.6-1.8,4.2-1.8,5.8,0l31.4,35.1c-23-5-48.4-7.8-75.2-7.8
	C223.3,252,197.9,254.8,174.9,259.8z"/>
<path class="st4" d="M211.2,225.4l9.7,10.8l8,10.7c-1.9-1.5-6.3-6.2-10.3-9.6c-1.4-1.2-3.9,3.3-4.7,1.5c-0.8-1.8-4.3-11.7-6-14.1
	C209,224.2,210.3,224.4,211.2,225.4z"/>
<g>
	<defs>
		<rect id="SVGID_1_" x="152" y="212" width="195.1" height="53.3"/>
	</defs>
	<clipPath id="SVGID_00000136387038391891491870000018342473256836649378_">
		<use xlink:href="#SVGID_1_"  style="overflow:visible;"/>
	</clipPath>
	<g style="clip-path:url(#SVGID_00000136387038391891491870000018342473256836649378_);">
		<path class="st6" d="M177.1,259l27-30.4c0.1-0.1-1.9,6.4-0.3,6.2c1.5-0.2,2.6-4.2,3.1-2.5c1.2,4.5,4.9,9.6,6.7,13.8
			c0.7,1.8,3.4-7.6,4.8-6.4c1.9,1.6,3,2.6,6.5,5.5c0.8,0.6-5.5-0.3-4.8,0.3c1.2,1,6.3,3.8,8.9,4.9c1.2,0.5,2.6,1.1,4,1.6
			c0.9,0,1.7-0.1,2.7-0.1l-5.4-5.2l-8.5-11.3l20.4-22.8c0.3-0.3-2.6,8-0.9,8.5c1.3,0.4,5.8-5.4,5.9-4.1c0.7,4.5,0.9,8.4,1.2,15
			c0.1,1.5,2.7-8.6,3-7.2c0.9,3.9,3.3,12.7,4.7,17.3c0.3,1.1-3.3-1-3,0.1c0.9,2.8,11.3,8.2,11.4,8.5c-3.4-3.3-4.8-4.5-5.9-7.2
			c-1.7-4.5-0.3-9.2,1.3-9.3c3.2-0.1,6.7,2.7,10.6,6.6c1,1.1-4.3-0.5-3.2,0.8c0.7,0.7,3.3,1.6,5.1,2.7c3.3,2.2,9.9,4.2,11.4,5.6
			l-9.4-8.3l-14.2-21.9c0.5-0.6,1.3-0.9,2.7-0.9c0.8,0.1,1.9-0.6,2.8,0.5c3,3.8,6.9,11.3,9.9,14.9c1.6,1.9,1.5-5.2,2.8-3.4
			c2.6,3.2,6.9,8.8,9.8,12.1c0.5,0.6-4.7-2.7-4.2-2.2c1,1.1,3.7,4,5.5,5.3c2.6,1.9,6.4,2.5,6.9,2.9l-5.6-6.1l-7.2-11.7l2.8-3.1
			c0.2-0.2,0.2,4.1,2.2,4.8c1.2,0.5,2.1-4.1,3-2.6c3.1,5.8,8.7,15.8,11.2,20.8c1.2,2.2,5.5,4.4,5.8,4.7l-3.3-5.4l-0.5-7.4l18,16.2
			c8.4,1.8,16.5,3.8,24.2,6.2c-29.7-6.6-62.5-10.3-97.1-10.3c-34.5,0-67.4,3.7-97,10.3C160.7,262.9,168.8,260.8,177.1,259z"/>
	</g>
</g>
<path class="st4" d="M255,234.1c-0.5-5.2-8.6-25.4-6.8-25.8l9.9,12.1l13.3,19.1c-3.9-3.3-9-8.6-12.6-8.2
	C257.3,231.4,256,232.3,255,234.1z"/>
<path class="st4" d="M275.2,231.1c-1.6-1.9-7.3-12.4-9.7-16.4c0.9-0.2,1.9,0.1,2.6,0.9l14.8,16.6l2.6,4.7c-2.8-3.2-4.9-5.5-7.3-8.1
	C276.7,227.2,276.8,233,275.2,231.1z"/>
<path class="st4" d="M302.7,247.6c-0.7-0.8-7.1-15.8-11.7-23.2c0.7,0,1.5,0.3,2,1l19.2,21.6l-8.5-6.9L302.7,247.6z"/>
<g>
	<defs>
		<rect id="SVGID_00000051343373667424918950000017140413802427333290_" x="162.7" y="257.3" width="174.7" height="9.5"/>
	</defs>
	<clipPath id="SVGID_00000062174019979192435530000000480215408222617489_">
		<use xlink:href="#SVGID_00000051343373667424918950000017140413802427333290_"  style="overflow:visible;"/>
	</clipPath>
	<g style="clip-path:url(#SVGID_00000062174019979192435530000000480215408222617489_);">
		<path class="st6" d="M250,257.6c-31.8,0-61.5,3.3-86.7,9.2c26.5-4.4,55.8-6.9,86.7-6.9c30.9,0,60.2,2.5,86.8,6.9
			C311.6,261,281.9,257.6,250,257.6z"/>
	</g>
</g>
<g>
	<defs>
		<rect id="SVGID_00000022559206088754834860000018440131918389329025_" x="128.1" y="161.3" width="85.2" height="98.7"/>
	</defs>
	<clipPath id="SVGID_00000009557566861516344090000000870751685745456025_">
		<use xlink:href="#SVGID_00000022559206088754834860000018440131918389329025_"  style="overflow:visible;"/>
	</clipPath>
	<g style="clip-path:url(#SVGID_00000009557566861516344090000000870751685745456025_);">
		<path class="st6" d="M185.5,197.6c-0.7,0.4-1.4,0.8-2.1,1.2c0.3,0.6,0.6,1.3,1,2.1C184.8,199.8,185.1,198.8,185.5,197.6z
			 M178.6,202.3c-1.6,1.5-3.1,3.1-4.4,5c-0.4-0.9-0.8-1.8-1.2-2.7c0.1,2.4-1.1,3.9-1,6.4c-1.2,2.7-3.3,6-4.6,8.8
			c4,10,8.8,19,12.8,26.4c-1.1-16.1-1.2-25.3,3-40.4C181.6,204.6,180,203.3,178.6,202.3z M167,218.8c-1-13.5,3-18.1,9.5-21.2
			l-1.3-4.4h-0.5l-0.7,4.6l-5.1-5.1c-0.3,0.3-0.8,0.6-1.2,1c-2.5,0.8-5.2,1.2-7.7,2C161.5,203.7,164,211.5,167,218.8z M181.6,195.6
			c1-0.4,2-0.8,3.1-1.2c-1.3-0.3-3.1-0.5-4.6-0.8C180.6,194.4,181.1,195.1,181.6,195.6z M179.6,193.1c0.3-0.7,0.9-1.4,1.1-2.2
			c-0.6,0.5-1.3,0.9-1.9,1.3C179.1,192.5,179.3,192.8,179.6,193.1z M159.9,195.4c1-1.2,4.1-4.4,6.7-6.7l-1-2.5
			c-0.6,0.9-1.1,1.7-1.7,2.5c-1.6-0.7-3.8-1.4-5.3-2C158.9,189.6,159.4,192.5,159.9,195.4z M173.7,186.5c4.4,1,10.9,3.8,10.9,3.8
			s-0.1-8.3,0.8-9.5c0.9-1.1,1.3-0.5,2.4,0.2c1.1,0.6,4.1,3.1,4.1,3.1c-1.3,0.2-2.6,0.3-3.8,0.5c0.2,0.7,0.8,0.5,1,1.2
			c-0.3,1-0.9,2.8-1.3,3.8c0,0,4.5-4.8,7.9-6.2c3.4-1.5,6-0.3,7.9,0.3c1.9,0.6,9.1,5.3,9.1,5.3s-7.9-0.9-9.1-0.6
			c-1.2,0.2-5.2-1.6-5.2-1.6c0.6,1,1.6,1.2,2.2,2.2c-2.2,0.6-3.6,1.3-5.7,1.9c-0.9-0.5-3-0.2-3.9-0.8c0.5,1,1.7,0.5,2.1,1.5
			c-1.2,0.5-3.2,2.4-4.4,2.8c0,0,9.1,5,10.4,7.1c1.3,2,4,9,4.1,10.6c0.2,1.6,1,10.2,1,10.2c-2.2-2.4-4.2-6.2-6.5-8.7
			c0.2-2.9,0.3-4.4,0.6-7.4c-0.8,1.2-1.6,2.4-2.4,3.7c-1-1.9-2-3.8-3-5.8c-0.1-1.5-0.1-2.9-0.1-4.4c-0.7,0.4-1.4,0.9-2.1,1.3
			c-1-0.9-2.6-1.9-3.7-2.9c-0.5,1.7-1,3.4-1.4,5.1c1.6,3.4,3.4,7.1,3.4,7.1c-1.3-0.8-2.7-1.9-4.1-3c-3,17.6,0.8,35.7,2.3,45.9
			l-3,0.4c0.4,0.8,0.9,1.6,1.3,2.3c-2.2,1.2-4.3,2.4-6.5,3.6c-13.6-29.6-18.8-40.4-21.8-72.4c-3.7,4.7-6.4,10.2-7.6,16.7
			c-0.9-1-1.7-1.9-2.6-2.9c1.2,3,0.7,5.4,1.9,8.3c0,4.2-0.7,9.5-0.7,13.7c-11.7-24.2-3.7-29.5,6.5-39.5c-1.8,0.1-4.4,0.8-6.1,0.9
			c-0.2-1.2,0.3-2.6,0.1-3.8c-0.9,1.4-1.6,2.6-2.4,4c-2.3,1-5.3,2.4-7.5,3.4c0.1-1.9,0.2-3.7,0.2-5.6c-1.2,2.2-1.9,4.7-3,6.9
			c-2.4,2.1-5.3,3.8-7.7,5.9c0,0,4.3-14.5,7.2-16.5c2.9-2,17.2-0.5,17.2-0.5s-4.1-10.4-3.7-12.2c0.4-1.8,1.1-1.2,2.6-0.8
			c1.5,0.4,5.9,2.3,5.9,2.3c-1.3,0.7-2.6,1.4-3.9,2.1c0.6,0.8,1,0.3,1.6,1c0.1,1.3,0.3,3.9,0.5,5.3c0,0,2.6-7.8,5.5-11
			c3-3.2,6.3-2.8,8.7-2.7c2.4,0.1,12.3,2.9,12.3,2.9s-9,2.1-10.2,2.9c-1.2,0.8-6.5,0.1-6.5,0.1c1.2,1.1,2.3,0.9,3.4,1.9
			c-2,1.6-3.2,3.1-5.2,4.7c-1.3-0.3-3.3,0.9-4.6,0.6c1,1,2-0.1,3,1c-1.1,1.1-2.3,4.3-3.4,5.3c0,0,12.3,2.6,14.7,4.7
			C173.5,186.2,173.6,186.4,173.7,186.5z"/>
	</g>
</g>
<g>
	<defs>
		<rect id="SVGID_00000094603293668728110440000001399837037246079932_" x="210.7" y="118.8" width="89.3" height="47.8"/>
	</defs>
	<clipPath id="SVGID_00000008131214532624021160000008713088780577925802_">
		<use xlink:href="#SVGID_00000094603293668728110440000001399837037246079932_"  style="overflow:visible;"/>
	</clipPath>
	<g style="clip-path:url(#SVGID_00000008131214532624021160000008713088780577925802_);">
		<path class="st6" d="M227.2,149.7l-1.9-4.8l2-1c0.7-0.3,2.6,0.2,3.2,0.6l4.8,2.8l10.8-5.8l-6.7-3.7l-28.6-7.8l1.6-2.3
			c0,0,0.3-0.6,2-1.1l27.2,2l5.6-3.5c0.9-0.5,2.2,0.1,3,1.3c0.6,1,0.7,2.1,0.3,2.8l17.2,1.3l14-7.3c0.6-0.4,2.7-2.6,5.7-3.5
			c3.3-1,3.5-0.4,5.5-0.2c2.7,0.2,6-0.8,6.9,1.9c1.9,6.4-25.8,19.7-26.8,20l2.6-0.1l-0.9,6.2c0.6,0.1,1.2,0.6,1.6,1.3
			c0.6,1.1,0.5,2.3-0.3,2.7l-2,1.2l-1.2,8.7c-0.2,1.6-0.9,2.3-1.9,2.7l-2.7,1.1l-4-13.2l-7-3.2c-0.6,0.2-4,1.9-11.3,4.1
			c-8.5,2.6-10.9,2.9-11.5,3.2l0.3,4.4c0.1,0.8-1.9,1.8-2.4,1.4l-6.2-4.6c-0.9,0.3-3.1,0.7-3.4,0c-0.3-1-0.1-1.5,0.3-1.9l-11.9-5.8
			c-0.1-0.1-0.2-0.1-0.2-0.2v-0.1c-0.2-0.6,1.5-2,3.4-1.7l11.7,1.7C226.6,149.7,226.9,149.7,227.2,149.7z"/>
	</g>
</g>
<g>
	<g transform="translate(43.073682, 254.785305)">
		<g>
			<path class="st10" d="M28.2,85.1c1.3,0.1,1.9-0.5,1.7-1.8c-0.6-3.5-1.7-11.1-2-19.3c5.2,0.1,8.9,3.7,8.9,9.1
				c0,6.1-0.6,7.7-1.1,10.3c-0.3,1.3,0.4,2,1.7,1.8c1.2-0.2,2.3-0.3,4.6-0.3c2.5,0,4.3,0.1,6,0.3c1.4,0.1,2-0.6,1.5-2
				c-0.8-2.4-2.1-6.5-2.5-10.5c-0.6-4.6-3.4-9.8-7.1-12.4c3.1-2.2,5.3-5.8,5.8-10.7c0.5-4.1,1.1-8.1,2-12.1c0.4-1.3-0.3-2-1.6-1.8
				c-1.5,0.2-3,0.4-5.5,0.4c-2.2,0-3.8-0.1-5.1-0.4c-1.3-0.2-2,0.5-1.6,1.9c0.8,2.6,1.8,7.4,1.8,11.7c0,5.8-2.8,8-8,7.9
				c0.1-8.9,1.4-16.3,2-19.7c0.3-1.3-0.3-2-1.6-1.9c-1.6,0.3-3,0.4-5.5,0.4c-2.3,0-3.9-0.1-5.2-0.4c-1.3-0.2-2,0.5-1.8,1.8
				c0.7,4,2.2,13.1,2.2,22.9c0,13.4-1.3,16.6-2.4,23c-0.2,1.3,0.6,2,1.9,1.8c1.3-0.2,2.9-0.3,5.3-0.3C25.1,84.7,26.6,84.9,28.2,85.1
				z"/>
		</g>
	</g>
</g>
<g>
	<g transform="translate(70.035495, 254.785305)">
		<g>
			<path class="st10" d="M37,85.1c1.3,0.1,1.9-0.6,1.6-1.9c-0.6-2.9-1.5-8.6-1.9-15.9c4.6,0.6,8.6,3.2,8.6,8.2
				c0,3.7-0.3,6.2-0.8,7.7c-0.3,1.3,0.1,2,1.5,1.8c1.1-0.1,2.2-0.3,4.5-0.3c2.5,0,4.3,0.1,6,0.3c1.4,0.1,2-0.6,1.6-2
				c-0.8-2.2-2-6-2.6-9.6c-0.5-2.6-2.7-7-6.6-9.4c3.9-2.3,6.1-6.5,6.1-12.8c0-10.4-5.8-15.9-16.6-16.1c-5,0.1-7.4,0.8-12.1,0.3
				c-1.3-0.1-2,0.5-1.8,1.8c0.8,4,2.2,13.1,2.2,23c0,9.8-1.4,18.9-2.2,22.9c-0.3,1.3,0.4,2,1.8,1.8c1.3-0.2,2.9-0.3,5.2-0.3
				C33.9,84.7,35.4,84.9,37,85.1z M36.5,62.4c0-5.1-0.4-10.3,0.4-14.7c0.4-2.2,1.9-3.9,3.7-3.9c3,0,4.5,2.2,4.5,7.6
				c0,7.4-2.7,11-6.7,11H36.5z"/>
		</g>
	</g>
</g>
<g>
	<g transform="translate(96.628691, 254.785305)">
		<g>
			<path class="st10" d="M35.1,85.1c3.2-0.3,7.7-0.6,12.1-0.6c4.2,0,8.8,0.1,12.7,0.6c1.3,0.1,1.9-0.5,1.8-1.8
				c-0.3-2.9-0.4-7.1-0.2-10.5c0.1-1.4-0.4-1.6-1.6-0.8c-5,3.8-10.8,3.7-13.3,3.5c0-0.1-0.7-7.2-1.1-12.4c2.5,0,5.7,0.8,7.8,1.6
				c1.3,0.6,1.8,0.3,1.7-1.1c-0.1-1.3-0.1-2.7-0.1-4c0-1.5,0.1-2.8,0.1-4.1c0.1-1.4-0.4-1.6-1.6-1.1c-2,1-5.1,1.8-7.9,1.8
				c0.4-5.1,1-11.2,1-11.2C49,45,54.1,44.6,58.9,48c1.3,0.8,2.1,0.5,2.1-1.1c-0.2-4-0.2-6.4,0-9.6c0.1-1.3-0.4-2.1-1.7-1.9
				c-5.8,1-16.9,0.9-24.2,0.1c-1.3-0.1-2,0.5-1.7,1.8c0.7,4,2.2,13.1,2.2,23c0,9.9-1.5,19-2.2,23C33.1,84.6,33.8,85.3,35.1,85.1z"/>
		</g>
	</g>
</g>
<g>
	<g transform="translate(119.693679, 254.785305)">
		<g>
			<path class="st10" d="M51.3,85.1c1.5-0.2,2.9-0.3,5.3-0.3c2.5,0,3.9,0.1,5.4,0.3c1.4,0.2,2-0.5,1.7-1.8
				c-0.5-2.2-1.3-6.1-1.8-10.6c5.1-1.3,9-4.6,9-10.3c0.3-10.5,0.6-17,2.2-24.9c0.2-1.3-0.5-2-1.8-1.9c-1.5,0.3-3,0.4-5.5,0.4
				c-2.3,0-3.9-0.1-5.2-0.4c-1.3-0.2-2,0.5-1.7,1.8c1.3,6.3,2,10.6,2,22.1c0,5.1-1.6,6.8-4.1,6.8c-2.2,0-4.1-1.4-4.1-6.8
				c0.1-9.5,1.4-18.3,2.1-22.1c0.3-1.3-0.4-2-1.7-1.9c-1.5,0.3-3,0.4-5.5,0.4c-2.3,0-3.9-0.1-5.2-0.4c-1.3-0.2-2,0.5-1.8,1.8
				c1.3,7,2.1,16.4,2.1,24.3c0,6,3.8,9.4,8.8,10.8c-0.4,5.1-1.3,8.2-1.9,10.7C49.4,84.9,50.1,85.3,51.3,85.1z"/>
		</g>
	</g>
</g>
<g>
	<g transform="translate(145.181022, 254.785305)">
		<g>
			<path class="st10" d="M66.4,86c10.7,0,17-8.2,17-25.7c0-16-6.2-25.6-17-25.6c-10.7,0-17.1,9.6-17.1,25.6
				C49.3,77.8,55.6,86,66.4,86z M66.3,76.2c-3.4,0-5.7-6.9-5.7-15.6c0-9.7,2.2-16,5.7-16c3.4,0,5.7,6.3,5.7,16
				C72,69.3,69.7,76.2,66.3,76.2z"/>
		</g>
	</g>
</g>
<g>
	<g transform="translate(172.090179, 254.785305)">
		<g>
			<path class="st10" d="M60.3,85.1c3.2-0.3,7.7-0.6,11.9-0.6c4.6,0,8.6,0.1,12.2,0.6c1.3,0.1,1.9-0.4,1.8-1.8
				c-0.3-3.4-0.2-7.6,0-11.4c0.1-1.3-1.1-1.8-2.2-1c-5.1,3.9-10.2,3.2-12.2,3.1c-0.3-2.5-1.1-6.9-1.1-13.7c0-9.7,0.9-16.6,2.1-23
				c0.2-1.3-0.4-2-1.7-1.8c-1.5,0.3-3,0.4-5.5,0.4c-2.4,0-3.9-0.1-5.2-0.4c-1.3-0.2-2,0.5-1.8,1.8c0.7,4,2.2,13.1,2.2,22.9
				c0,10-1.1,17.6-2.2,23C58.3,84.6,58.9,85.3,60.3,85.1z"/>
		</g>
	</g>
</g>
<g>
	<g transform="translate(194.523245, 254.785305)">
		<g>
			<path class="st10" d="M78.7,85.1c1.3,0.1,1.9-0.5,1.7-1.8c-0.6-3.5-1.7-11.1-2-19.3c5.2,0.1,8.9,3.7,8.9,9.1
				c0,6.1-0.6,7.7-1.1,10.2c-0.3,1.3,0.4,2,1.7,1.8c1.2-0.2,2.3-0.3,4.6-0.3c2.5,0,4.3,0.1,6,0.3c1.4,0.1,2-0.6,1.5-2
				c-0.8-2.4-2.1-6.5-2.5-10.5c-0.6-4.6-3.4-9.8-7.1-12.4c3.1-2.2,5.3-5.8,5.8-10.7c0.5-4.1,1.1-8.1,2-12.1c0.4-1.3-0.3-2-1.6-1.8
				c-1.5,0.2-3,0.4-5.5,0.4c-2.2,0-3.8-0.1-5.1-0.4c-1.3-0.2-2,0.5-1.6,1.9c0.8,2.6,1.8,7.4,1.8,11.7c0,5.8-2.8,8-8,7.9
				c0.1-8.9,1.4-16.3,2-19.7c0.3-1.3-0.3-2-1.6-1.9c-1.6,0.3-3,0.4-5.5,0.4c-2.3,0-3.9-0.1-5.2-0.4c-1.3-0.2-2,0.5-1.8,1.8
				c0.7,4,2.2,13.1,2.2,22.9c0,13.4-1.3,16.6-2.4,23c-0.2,1.3,0.6,2,1.9,1.8c1.3-0.2,2.9-0.3,5.3-0.3C75.6,84.7,77.1,84.9,78.7,85.1
				z"/>
		</g>
	</g>
</g>
<g>
	<g transform="translate(221.485058, 254.785305)">
		<g>
			<path class="st10" d="M83.7,85.2c1.8-0.3,3.6-0.5,5.3-0.5c1.9,0,3.9,0.2,6,0.4c1.1,0.2,1.8-0.4,1.8-1.6
				c0.1-5.4,0.6-14.7,3.3-26.9c2.7,12.2,4.1,21.6,4.4,26.9c0.1,1.3,0.7,1.8,2,1.7c1.8-0.3,3.6-0.5,5.3-0.5c1.6,0,3.2,0.1,4.8,0.3
				c1.2,0.2,1.9-0.3,1.9-1.6c0.1-7.5,1-15,2.2-22.5c1.4-9.8,4.1-19.3,5.3-23.5c0.4-1.3-0.2-2.1-1.5-1.9c-1.3,0.2-2.8,0.4-5.1,0.4
				c-2.5,0-4.1-0.2-5.7-0.4c-1.3-0.2-2,0.4-1.9,1.7c0.1,3.9,0.1,13-0.8,21.8c-0.2,2.1-0.6,4.1-1.1,5.8c-0.6-2.4-1.4-5.3-2.2-9.1
				c-1.1-4.9-2.9-11.8-3.9-17.5c-0.2-1.1-0.8-1.7-2-1.7h-3.2c-1.1,0-1.8,0.6-2,1.7c-1.1,5.8-2.7,13.1-3.7,17.5
				c-0.8,3.5-1.5,6.3-2.2,8.6c-0.4-1.5-0.9-3.4-1.1-5.4c-1-8.8-0.9-17.9-0.8-21.8c0.1-1.3-0.6-2-1.9-1.8c-1.6,0.2-3.2,0.4-5.7,0.4
				c-2.3,0-3.7-0.1-5.1-0.4c-1.3-0.2-2,0.6-1.5,1.9c1.3,4.2,3.9,13.6,5.3,23.5c1.2,7.5,2,15,2.2,22.5C81.9,84.7,82.6,85.4,83.7,85.2
				z"/>
		</g>
	</g>
</g>
<g>
	<g transform="translate(261.032574, 254.785305)">
		<g>
			<path class="st10" d="M89.9,85.1c3.2-0.3,7.7-0.6,12.1-0.6c4.2,0,8.8,0.1,12.7,0.6c1.3,0.1,1.9-0.5,1.8-1.8
				c-0.3-2.9-0.4-7.1-0.2-10.5c0.1-1.4-0.4-1.6-1.6-0.8c-5,3.8-10.8,3.7-13.3,3.5c0-0.1-0.7-7.2-1.1-12.4c2.5,0,5.7,0.8,7.8,1.6
				c1.3,0.6,1.8,0.3,1.7-1.1c-0.1-1.3-0.1-2.7-0.1-4c0-1.5,0.1-2.8,0.1-4.1c0.1-1.4-0.4-1.6-1.6-1.1c-2,1-5.1,1.8-7.9,1.8
				c0.4-5.1,1-11.2,1-11.2c2.5-0.1,7.6-0.6,12.4,2.9c1.3,0.8,2.1,0.5,2.1-1.1c-0.2-4-0.2-6.4,0-9.6c0.1-1.3-0.4-2.1-1.7-1.9
				c-5.8,1-16.9,0.9-24.2,0.1c-1.3-0.1-2,0.5-1.7,1.8c0.7,4,2.2,13.1,2.2,23c0,9.9-1.5,19-2.2,23C87.9,84.6,88.6,85.3,89.9,85.1z"/>
		</g>
	</g>
</g>
<g>
	<g transform="translate(284.097563, 254.785305)">
		<g>
			<path class="st10" d="M107.3,86c10.5,0,15.5-5.6,15.5-14.3c0-6.7-4.5-11-9.1-14.6c-3.4-2.8-8.3-5.5-8.3-8.7
				c0-3.3,2.7-4.1,4.8-4.1c2,0,5,0.8,8.3,4.8c1.1,1.3,1.9,1.1,1.9-0.6c0-4.2,0.1-8.4,0.3-11.3c0.1-1.3-0.5-1.8-1.7-1.8
				c-3.2,0.1-5.1-0.8-9.3-0.8c-8.3,0-14.3,5.1-14.3,13.6c0,5.9,1.7,9.7,6.7,14.3c3.7,3.4,9.9,7,9.9,10c0,2.5-2.2,3.6-4.7,3.6
				c-2.9,0-6.2-1.8-8.9-5c-1.1-1.2-1.8-1-1.7,0.6c0.1,3.7-0.3,8.1-0.6,11.7c-0.1,1.3,0.6,1.9,1.8,1.9C101.1,85.4,103,86,107.3,86z"
				/>
		</g>
	</g>
</g>
<g>
	<g transform="translate(305.740737, 254.785305)">
		<g>
			<path class="st10" d="M114.6,85.1c1.2-0.2,2.5-0.3,4.6-0.3c2.2,0,3.6,0.1,5,0.3c1.3,0.2,2-0.4,1.8-1.8c-0.6-4-1.8-13.1-1.8-23
				c0-6.1,0.4-11.6,0.9-15.8c2.3-0.2,5.3,0.4,8.8,1.8c1.3,0.5,2.1-0.1,2-1.4c-0.2-2.9-0.1-5.2,0-7.7c0.1-1.3-0.6-1.9-1.8-1.8
				c-2.8,0.3-4.5,0.3-7.8,0.3h-13.8c-3.2,0-5,0-7.8-0.3c-1.2-0.1-2,0.5-1.8,1.8c0.2,2.5,0.1,4.1-0.1,7.5c-0.1,1.4,0.8,2,2,1.5
				c3.7-1.5,6.7-2,9-1.8c0.5,4.2,0.9,9.7,0.7,15.8c-0.3,9.9-1.3,19-1.8,23C112.5,84.6,113.2,85.3,114.6,85.1z"/>
		</g>
	</g>
</g>
<g>
	<g transform="translate(97.416715, 280.457048)">
		<g>
			<path class="st11" d="M34.4,93.8c1.5,0,3.2-0.2,5.2-0.3c0.6,0,1.3,0,1.9,0c0.3,0,0.6-0.3,0.4-0.6c-0.4-1.1-1.2-2.2-2.4-2.2
				c-1.1,0-2.3,0.2-3.7,0.3l3.7-13.7c0.4-1.4-0.5-2.6-1.9-2.8c-0.2,0-0.3,0.1-0.4,0.3L33,90.4c-0.1,0.2-0.1,0.4-0.1,0.6l-0.3-0.1
				c-0.3-0.1-0.5,0.2-0.5,0.4C32.3,92.4,32.8,93.8,34.4,93.8z"/>
		</g>
	</g>
</g>
<g>
	<g transform="translate(104.979966, 280.457048)">
		<g>
			<path class="st11" d="M38.7,79.7c0.5,0.2,1,0.1,1.4-0.2c0.7-0.6,1.1-1.5,1.5-2.6c0.2-1.2-0.7-2.2-1.9-2.3c-0.6,0-0.7,0.4-0.7,1.3
				c-0.1,1.8-0.1,2.4-0.5,3.2C38.3,79.3,38.4,79.6,38.7,79.7z"/>
		</g>
	</g>
</g>
<g>
	<g transform="translate(108.475254, 280.457048)">
		<g>
			<path class="st11" d="M50.1,87.6c-0.1-0.1-0.2,0-0.2,0.1c-1.1,3.7-2.3,4-3.2,4c-1.1,0-1.2-0.8-0.6-2.8l1.6-5.2
				c0.8-2.9,0.2-3.8-1.4-3.8c-0.2,0-0.3,0.1-0.3,0.3l-0.3,1c-0.4-1-1.3-1.4-2-1.1c-3-0.2-5,2.3-6.2,6.3c-1.6,5.4,0.3,8.7,4,7.1
				c0.6,0,1-0.4,1.5-1.1c0.3,1.1,1.3,1.5,2.9,1.5c2.6,0,4-1.9,4.9-5C50.9,88.4,50.7,88,50.1,87.6z M40.7,92.1
				c-1.4-0.7-1.2-2.9-0.5-5.4c1-3.3,2.4-4.9,3.6-4.9c1.2,0,1.2,1.5,0.4,3.9l-0.6,1.9c-0.2,0.6-0.4,1.2-0.5,1.7
				C42.5,91,41.5,92.4,40.7,92.1z"/>
		</g>
	</g>
</g>
<g>
	<g transform="translate(117.993497, 280.457048)">
		<g>
			<path class="st11" d="M48.7,79.8c-0.2-0.1-0.4,0-0.5,0.2c-0.9,2.4-1.6,4.4-2.7,6.6c-1,2.1-1.8,3.8-3,5.9L44,82.4
				c0.2-1.3-0.6-2.3-2-2.5c-0.2,0-0.4,0.1-0.4,0.3l-1.7,11.3c-0.2,1.4,0.7,2.3,2.1,2.4c0.1,0,0.2,0,0.3-0.1c0.7,0,1.2-0.5,1.7-1.1
				c1.2-1.3,2.3-2.8,3.5-5.2l2.4-4.6C50.4,81.7,49.9,80.3,48.7,79.8z"/>
		</g>
	</g>
</g>
<g>
	<g transform="translate(124.707609, 280.457048)">
		<g>
			<path class="st11" d="M53.9,87.6c-0.1-0.1-0.2,0-0.2,0.1c-1.1,3.7-3.2,4-5.1,4c-1.7,0-3.1-0.6-3.3-2.4c0.2,0.1,0.4,0.1,0.6,0.1
				c2.1,0.4,4.4-0.7,5.9-3.7c1.4-2.9,0.4-5.6-2.2-5.5c-2.7-0.7-5.5,0.8-6.8,5.6c-2,7.4,3,8.1,4.8,8.1c3.8,0,5.9-1.9,6.8-5
				C54.7,88.4,54.5,88,53.9,87.6z M48.5,81.5c1.6,0.3,1.8,1.3,1,3.3c-0.9,1.8-1.5,2.8-4,2.6c0.1-0.4,0.2-0.9,0.3-1.3
				C46.7,83.2,47.3,81.6,48.5,81.5z"/>
		</g>
	</g>
</g>
<g>
	<g transform="translate(133.060764, 280.457048)">
		<g>
			<path class="st11" d="M53.5,93.9c2.6,0,3.9-1.8,4.9-5c0.2-0.6,0-1-0.6-1.3c-0.1-0.1-0.2,0-0.2,0.1c-1.1,3.7-2.3,4-3.2,4
				c-1.1,0-1.1-0.8-0.6-2.8l1.3-5c0.7-2.7,0.2-3.7-1.2-3.8c-1.9-0.7-3.7-0.2-4.7,1.6c-0.1-1-0.5-1.9-1.5-1.9c-0.2,0-0.3,0.1-0.4,0.3
				l-3.2,10.9c-0.4,1.3,0.4,2.5,1.8,2.8c0.2,0.1,0.4-0.1,0.5-0.3c2.1-9,3.6-11.5,5.7-11.7c0.3-0.1,0.8,0.3,0.7,0.6l-1.6,5.1
				C49.7,92.6,50.5,93.9,53.5,93.9z"/>
		</g>
	</g>
</g>
<g>
	<g transform="translate(142.203811, 280.457048)">
		<g>
			<path class="st11" d="M55.5,87.6c-0.1-0.1-0.2,0-0.2,0.1c-1.1,3.7-2.3,4-3.2,4C51,91.7,50.3,91,51,89c1.1-3.3,1.5-4.5,2.3-6.8
				c0.3,0,0.6,0,0.8,0l1.7-0.1c0.3,0,0.4-0.2,0.4-0.4c-0.3-0.8-0.9-1.5-2-1.5h-0.3c0-0.1,0.1-0.2,0.1-0.4c0.8-2.9,0-3.8-1.6-3.8
				c-0.2,0-0.3,0.1-0.3,0.3c-0.5,1.6-0.8,2.9-1.2,4h-0.5c-0.7,0-1.1,0-1.6,0c-0.3,0-0.5,0.1-0.4,0.3c0.2,0.7,0.7,1.8,1.6,1.7h0.2
				c-0.5,1.5-1,3-1.7,5.3c-1.2,3.8-0.1,6.3,2.7,6.3c2.6,0,3.9-1.9,4.9-5C56.3,88.4,56.1,88,55.5,87.6z"/>
		</g>
	</g>
</g>
<g>
	<g transform="translate(147.338129, 280.457048)">
		<g>
			<path class="st11" d="M63,87.6c-0.1-0.1-0.2,0-0.2,0.1c-1.1,3.7-2.3,4-3.2,4c-1.1,0-1.2-0.8-0.6-2.8l1.6-5.2
				c0.8-2.9,0.2-3.8-1.4-3.8c-0.2,0-0.3,0.1-0.3,0.3l-2.4,7.3c-0.2,0.6-0.4,1.2-0.5,1.7c-0.6,1.7-1.6,3.1-2.4,2.9
				c-1.4-0.7-1-2.7-0.3-5l1-3.4c0.8-2.9,0.2-3.8-1.4-3.8c-0.2,0-0.3,0.1-0.3,0.3l-2.1,6.6c-1.5,5.1,0.3,8.2,3.9,6.7
				c0.6,0,1-0.4,1.5-1.1c0.3,1.1,1.3,1.5,2.9,1.5c2.6,0,3.9-1.9,4.9-5C63.8,88.4,63.6,88,63,87.6z"/>
		</g>
	</g>
</g>
<g>
	<g transform="translate(156.816886, 280.457048)">
		<g>
			<path class="st11" d="M53,95c0.1,0,0.2-0.1,0.3-0.3l3.6-11.8l1.5-0.3c0.4-0.1,0.7,0.2,0.6,0.6l-1.3,4.4c-1.2,3.8-0.3,6.3,2.2,6.3
				c2.6,0,4-1.8,4.9-5c0.2-0.6,0-1-0.6-1.3c-0.1-0.1-0.2,0-0.2,0.1c-1.1,3.7-2.3,4-3.2,4c-1.1,0-1.1-0.8-0.6-2.8l1.3-5
				c0.7-2.7,0.3-3.7-1.1-3.8c-1.3,0-3.2,1.2-3.6,1.3c0.6-0.6,1.2-3.2-0.2-3.2c-1.2,0-1.7,0.8-2.1,1.8c-0.3,0.9-0.4,2,0.3,2.9
				l-3.1,8.7C51.1,93.6,51.9,94.8,53,95z"/>
		</g>
	</g>
</g>
<g>
	<g transform="translate(164.775083, 280.457048)">
		<g>
			<path class="st11" d="M67.3,87.6c-0.1-0.1-0.2,0-0.2,0.1c-1.1,3.7-3.2,4-5.1,4c-1.7,0-3.1-0.6-3.3-2.4c0.2,0.1,0.4,0.1,0.6,0.1
				c2.1,0.4,4.4-0.7,5.9-3.7c1.4-2.9,0.4-5.6-2.2-5.5c-2.7-0.7-5.5,0.8-6.8,5.6c-2,7.4,3,8.1,4.8,8.1c3.8,0,5.9-1.9,6.8-5
				C68.1,88.4,67.9,88,67.3,87.6z M61.9,81.5c1.6,0.3,1.8,1.3,1,3.3c-0.9,1.8-1.5,2.8-4,2.6c0.1-0.4,0.2-0.9,0.3-1.3
				C60,83.2,60.7,81.6,61.9,81.5z"/>
		</g>
	</g>
</g>
<g>
	<g transform="translate(173.128238, 280.457048)">
	</g>
</g>
<g>
	<g transform="translate(178.065089, 280.457048)">
		<g>
			<path class="st11" d="M61,93.8c0.2,0,0.3-0.1,0.4-0.3l3.3-14.1l0,12.2c0,1.3,1,2.2,2.3,2.2H67L74.3,79l-3.4,11.7
				c-0.5,1.6,0.3,2.7,1.9,2.8c0.2,0,0.3-0.1,0.4-0.3L77,78.3c0.5-2.2-0.4-3.7-2.3-3.8c-0.5,0-0.6,0.1-0.9,0.7l-6.7,13.4l0-10.6
				c0-2.6-0.6-3.5-3.2-3.3c-0.2,0-0.3,0.1-0.3,0.3l-4.3,16C58.8,92.3,59.5,93.6,61,93.8z"/>
		</g>
	</g>
</g>
<g>
	<g transform="translate(190.209745, 280.457048)">
		<g>
			<path class="st11" d="M77.3,87.6c-0.1-0.1-0.2,0-0.2,0.1c-1.1,3.7-2.3,4-3.2,4c-1.1,0-1.2-0.8-0.6-2.8l1.6-5.2
				c0.8-2.9,0.2-3.8-1.4-3.8c-0.2,0-0.3,0.1-0.3,0.3l-0.3,1c-0.4-1-1.3-1.4-2-1.1c-3-0.2-5,2.3-6.2,6.3c-1.6,5.4,0.3,8.7,4,7.1
				c0.6,0,1-0.4,1.5-1.1c0.3,1.1,1.3,1.5,2.9,1.5c2.6,0,4-1.9,4.9-5C78.1,88.4,77.9,88,77.3,87.6z M67.9,92.1
				c-1.4-0.7-1.2-2.9-0.5-5.4c1-3.3,2.4-4.9,3.6-4.9c1.2,0,1.2,1.5,0.4,3.9l-0.6,1.9c-0.2,0.6-0.4,1.2-0.5,1.7
				C69.7,91,68.7,92.4,67.9,92.1z"/>
		</g>
	</g>
</g>
<g>
	<g transform="translate(199.727987, 280.457048)">
		<g>
			<path class="st11" d="M67.3,95c0.1,0,0.2-0.1,0.3-0.3l3.6-11.8l1.5-0.3c0.4-0.1,0.7,0.2,0.6,0.6l-1.3,4.4
				c-1.2,3.8-0.3,6.3,2.2,6.3c2.6,0,4-1.8,4.9-5c0.2-0.6,0-1-0.6-1.3c-0.1-0.1-0.2,0-0.2,0.1c-1.1,3.7-2.3,4-3.2,4
				c-1.1,0-1.1-0.8-0.6-2.8l1.3-5c0.7-2.7,0.3-3.7-1.1-3.8c-1.3,0-3.2,1.2-3.6,1.3c0.6-0.6,1.2-3.2-0.2-3.2c-1.2,0-1.7,0.8-2.1,1.8
				c-0.3,0.9-0.4,2,0.3,2.9l-3.1,8.7C65.4,93.6,66.2,94.8,67.3,95z"/>
		</g>
	</g>
</g>
<g>
	<g transform="translate(207.686184, 280.457048)">
		<g>
			<path class="st11" d="M77.3,87.6c-0.1-0.1-0.2,0-0.2,0.1c-1.1,3.7-2.3,4-3.2,4c-1.1,0-1.7-0.8-1.1-2.8c1.1-3.3,1.5-4.5,2.3-6.8
				c0.3,0,0.6,0,0.8,0l1.7-0.1c0.3,0,0.4-0.2,0.4-0.4c-0.3-0.8-0.9-1.5-2-1.5h-0.3c0-0.1,0.1-0.2,0.1-0.4c0.8-2.9,0-3.8-1.6-3.8
				c-0.2,0-0.3,0.1-0.3,0.3c-0.5,1.6-0.8,2.9-1.2,4h-0.5c-0.7,0-1.1,0-1.6,0c-0.3,0-0.5,0.1-0.4,0.3c0.2,0.7,0.7,1.8,1.6,1.7H72
				c-0.5,1.5-1,3-1.7,5.3c-1.2,3.8-0.1,6.3,2.7,6.3c2.6,0,3.9-1.9,4.9-5C78.1,88.4,77.9,88,77.3,87.6z"/>
		</g>
	</g>
</g>
<g>
	<g transform="translate(212.820502, 280.457048)">
		<g>
			<path class="st11" d="M76.3,79.1c0.2,0.1,0.4-0.1,0.4-0.2l0.8-2c0.5-1.2-0.2-2.3-1.4-2.7l-0.4-0.1c-0.2-0.1-0.4,0.1-0.4,0.2
				l-0.8,2c-0.4,1.2,0.2,2.3,1.4,2.6L76.3,79.1z M73.5,93.9c2.6,0,3.9-1.9,4.9-5c0.2-0.5,0-0.9-0.6-1.3c-0.1-0.1-0.2,0-0.2,0.1
				c-1.1,3.7-2.3,4-3.2,4c-1.1,0-1.2-0.8-0.6-2.8c0.5-1.7,1.1-3.3,1.5-5c0.8-2.9,0-3.8-1.6-3.8c-0.2,0-0.3,0.1-0.3,0.3
				c-0.7,2.4-1.4,4.7-2.2,7.1C70,91.4,70.9,93.9,73.5,93.9z"/>
		</g>
	</g>
</g>
<g>
	<g transform="translate(217.066196, 280.457048)">
		<g>
			<path class="st11" d="M81.5,93.9c2.6,0,3.9-1.8,4.9-5c0.2-0.6,0-1-0.6-1.3c-0.1-0.1-0.2,0-0.2,0.1c-1.1,3.7-2.3,4-3.2,4
				c-1.1,0-1.1-0.8-0.6-2.8l1.3-5c0.7-2.7,0.2-3.7-1.2-3.8c-1.9-0.7-3.7-0.2-4.7,1.6c-0.1-1-0.5-1.9-1.5-1.9c-0.2,0-0.3,0.1-0.4,0.3
				l-3.2,10.9c-0.4,1.3,0.4,2.5,1.8,2.8c0.2,0.1,0.4-0.1,0.5-0.3c2.1-9,3.6-11.5,5.7-11.7c0.3-0.1,0.8,0.3,0.7,0.6l-1.6,5.1
				C77.7,92.6,78.5,93.9,81.5,93.9z"/>
		</g>
	</g>
</g>
<g>
	<g transform="translate(226.209242, 280.457048)">
		<g>
			<path class="st11" d="M80.8,79.1c0.2,0.1,0.4-0.1,0.4-0.2l0.8-2c0.5-1.2-0.2-2.3-1.4-2.7l-0.4-0.1c-0.2-0.1-0.4,0.1-0.4,0.2
				l-0.8,2c-0.4,1.2,0.2,2.3,1.4,2.6L80.8,79.1z M78,93.9c2.6,0,3.9-1.9,4.9-5c0.2-0.5,0-0.9-0.6-1.3c-0.1-0.1-0.2,0-0.2,0.1
				c-1.1,3.7-2.3,4-3.2,4c-1.1,0-1.2-0.8-0.6-2.8c0.5-1.7,1.1-3.3,1.5-5c0.8-2.9,0-3.8-1.6-3.8c-0.2,0-0.3,0.1-0.3,0.3
				c-0.7,2.4-1.4,4.7-2.2,7.1C74.5,91.4,75.4,93.9,78,93.9z"/>
		</g>
	</g>
</g>
<g>
	<g transform="translate(230.454935, 280.457048)">
		<g>
			<path class="st11" d="M82.8,99.3c0.2,0,0.3-0.1,0.3-0.3l4.6-15.3c0.9-2.9,0.2-3.8-1.4-3.8c-0.2,0-0.3,0.1-0.3,0.3l-0.3,1
				c-0.4-1-1.3-1.4-2-1.1c-3-0.2-5,2.3-6.2,6.3c-1.6,5.4,0.3,8.6,3.2,7.3c1.1,0.1,1.4-1,1.5-1.1l-0.7,2.4
				C80.5,98.3,81.3,99.3,82.8,99.3z M80.8,92.1c-1.4-0.7-1.2-2.9-0.5-5.4c1-3.3,2.4-4.9,3.6-4.9c1.2,0,1.2,1.5,0.4,3.9l-0.6,1.9
				l-0.6,2C82.5,91.1,81.6,92.3,80.8,92.1z"/>
		</g>
	</g>
</g>
<g>
	<g transform="translate(238.057685, 280.457048)">
		<g>
			<path class="st11" d="M93.2,87.6c-0.1-0.1-0.2,0-0.2,0.1c-1.1,3.7-2.3,4-3.2,4c-1.1,0-1.2-0.8-0.6-2.8l1.6-5.2
				c0.8-2.9,0.2-3.8-1.4-3.8c-0.2,0-0.3,0.1-0.3,0.3l-2.4,7.3c-0.2,0.6-0.4,1.2-0.5,1.7c-0.6,1.7-1.6,3.1-2.4,2.9
				c-1.4-0.7-1-2.7-0.3-5l1-3.4c0.8-2.9,0.2-3.8-1.4-3.8c-0.2,0-0.3,0.1-0.3,0.3l-2.1,6.6c-1.5,5.1,0.3,8.2,3.9,6.7
				c0.6,0,1-0.4,1.5-1.1c0.3,1.1,1.3,1.5,2.9,1.5c2.6,0,3.9-1.9,4.9-5C94,88.4,93.8,88,93.2,87.6z"/>
		</g>
	</g>
</g>
<g>
	<g transform="translate(247.536442, 280.457048)">
		<g>
			<path class="st11" d="M96.4,87.6c-0.1-0.1-0.2,0-0.2,0.1c-1.1,3.7-2.3,4-3.2,4c-1.1,0-1.2-0.8-0.6-2.8l1.6-5.2
				c0.8-2.9,0.2-3.8-1.4-3.8c-0.2,0-0.3,0.1-0.3,0.3l-0.3,1c-0.4-1-1.3-1.4-2-1.1c-3-0.2-5,2.3-6.2,6.3c-1.6,5.4,0.3,8.7,4,7.1
				c0.6,0,1-0.4,1.5-1.1c0.3,1.1,1.3,1.5,2.9,1.5c2.6,0,4-1.9,4.9-5C97.2,88.4,97,88,96.4,87.6z M87,92.1c-1.4-0.7-1.2-2.9-0.5-5.4
				c1-3.3,2.4-4.9,3.6-4.9c1.2,0,1.2,1.5,0.4,3.9l-0.6,1.9c-0.2,0.6-0.4,1.2-0.5,1.7C88.9,91,87.8,92.4,87,92.1z"/>
		</g>
	</g>
</g>
<g>
	<g transform="translate(257.054685, 280.457048)">
		<g>
			<path class="st11" d="M91.1,79.1c0.2,0.1,0.4-0.1,0.4-0.2l0.8-2c0.5-1.2-0.2-2.3-1.4-2.7l-0.4-0.1c-0.2-0.1-0.4,0.1-0.4,0.2
				l-0.8,2c-0.4,1.2,0.2,2.3,1.4,2.6L91.1,79.1z M88.3,93.9c2.6,0,3.9-1.9,4.9-5c0.2-0.5,0-0.9-0.6-1.3c-0.1-0.1-0.2,0-0.2,0.1
				c-1.1,3.7-2.3,4-3.2,4c-1.1,0-1.2-0.8-0.6-2.8c0.5-1.7,1.1-3.3,1.5-5c0.8-2.9,0-3.8-1.6-3.8c-0.2,0-0.3,0.1-0.3,0.3
				c-0.7,2.4-1.4,4.7-2.2,7.1C84.8,91.4,85.7,93.9,88.3,93.9z"/>
		</g>
	</g>
</g>
<g>
	<g transform="translate(261.300378, 280.457048)">
		<g>
			<path class="st11" d="M98.9,87.6c-0.1-0.1-0.2,0-0.2,0.1c-0.8,2.7-2.7,4-4.2,4.3c0.6-0.8,1.1-1.9,1.3-4.1
				c0.1-1.6-0.1-4.4-1.3-6.5c0.4-0.6,0.7-1.2,0.8-1.7c0.2-0.9-0.4-1.2-1.3-1.2c-0.9,0-1.6,0.7-1.9,1.6c-0.4,1.2-1.6,3.1-4.2,7.9
				c0-0.3,0-0.6-0.1-0.9c0-0.2-0.2-0.4-0.4-0.4c-0.9,0.2-1.7,0.8-1.7,2.2c0,2.8,2.2,4.9,6.1,4.9c3.4,0,6.3-0.8,7.7-4.9
				C99.7,88.4,99.5,88,98.9,87.6z M90.4,92.3c-1.2,0-1.8-0.7-2.2-1.8l4.4-8.1C94.3,86.7,92.4,92.3,90.4,92.3z"/>
		</g>
	</g>
</g>
<g>
	<g transform="translate(269.219089, 280.457048)">
		<g>
			<path class="st11" d="M102.1,87.6c-0.1-0.1-0.2,0-0.2,0.1c-1.1,3.7-3.2,4-5.1,4c-1.7,0-3.1-0.6-3.3-2.4c0.2,0.1,0.4,0.1,0.6,0.1
				c2.1,0.4,4.4-0.7,5.9-3.7c1.4-2.9,0.4-5.6-2.2-5.5c-2.7-0.7-5.5,0.8-6.8,5.6c-2,7.4,3,8.1,4.8,8.1c3.8,0,5.9-1.9,6.8-5
				C102.9,88.4,102.7,88,102.1,87.6z M96.7,81.5c1.6,0.3,1.8,1.3,1,3.3c-0.9,1.8-1.5,2.8-4,2.6c0.1-0.4,0.2-0.9,0.3-1.3
				C94.8,83.2,95.5,81.6,96.7,81.5z"/>
		</g>
	</g>
</g>
</svg>
